<svg width="53" height="54" viewBox="0 0 53 54" fill="none" xmlns="http://www.w3.org/2000/svg">
<ellipse cx="26.1562" cy="27" rx="26.1562" ry="27" fill="#9854CB"/>
<path fill-rule="evenodd" clip-rule="evenodd" d="M25.4288 27.7275V17.3814C25.4288 16.9733 25.0976 16.6399 24.6903 16.6671C24.3179 16.6919 23.9477 16.7355 23.5813 16.7975C22.0464 17.0569 20.5761 17.638 19.2703 18.5106C17.4473 19.7286 16.0266 21.4599 15.1876 23.4854C14.3486 25.5109 14.129 27.7398 14.5568 29.89C14.9845 32.0403 16.0402 34.0155 17.5905 35.5658C19.1408 37.116 21.1159 38.1718 23.2662 38.5995C25.4165 39.0272 27.6453 38.8077 29.6708 37.9687C31.6964 37.1297 33.4276 35.7089 34.6457 33.886C35.5182 32.5801 36.0993 31.1099 36.3588 29.575C36.4207 29.2085 36.4643 28.8384 36.4892 28.4659C36.5164 28.0587 36.183 27.7275 35.7748 27.7275H25.4288ZM34.4797 29.575H24.3203C23.9121 29.575 23.5813 29.2441 23.5813 28.836V18.6766C22.4137 18.9149 21.2973 19.3782 20.2967 20.0467C18.7776 21.0618 17.5936 22.5045 16.8944 24.1924C16.1953 25.8804 16.0123 27.7377 16.3688 29.5296C16.7252 31.3215 17.605 32.9675 18.8969 34.2594C20.1888 35.5513 21.8347 36.4311 23.6266 36.7875C25.4185 37.1439 27.2759 36.961 28.9638 36.2618C30.6518 35.5627 32.0945 34.3787 33.1095 32.8596C33.7781 31.859 34.2413 30.7426 34.4797 29.575Z" fill="white"/>
<path fill-rule="evenodd" clip-rule="evenodd" d="M30.4418 17.7151C29.8958 17.4889 29.3306 17.3162 28.7543 17.1986V24.402L35.9577 24.402C35.84 23.8256 35.6673 23.2605 35.4412 22.7144C34.9769 21.5937 34.2965 20.5753 33.4387 19.7175C32.5809 18.8598 31.5626 18.1793 30.4418 17.7151ZM37.8368 24.402C37.6982 23.5824 37.4676 22.779 37.148 22.0074C36.5909 20.6625 35.7744 19.4405 34.7451 18.4112C33.7157 17.3818 32.4937 16.5653 31.1488 16.0082C30.3773 15.6886 29.5739 15.458 28.7543 15.3195C28.3874 15.2575 28.0173 15.2139 27.6452 15.1891C27.238 15.1619 26.9068 15.4953 26.9068 15.9034V25.5105C26.9068 25.9186 27.2377 26.2495 27.6458 26.2495L37.2528 26.2495C37.661 26.2495 37.9944 25.9182 37.9672 25.511C37.9424 25.139 37.8988 24.7688 37.8368 24.402Z" fill="white"/>
<path d="M20.2967 20.0467C21.2973 19.3782 22.4137 18.9149 23.5813 18.6766V28.836C23.5813 29.2441 23.9121 29.575 24.3203 29.575H34.4797C34.2413 30.7426 33.7781 31.859 33.1095 32.8596C32.0945 34.3787 30.6518 35.5627 28.9638 36.2618C27.2759 36.961 25.4185 37.1439 23.6266 36.7875C21.8347 36.4311 20.1888 35.5513 18.8969 34.2594C17.605 32.9675 16.7252 31.3215 16.3688 29.5296C16.0123 27.7377 16.1953 25.8804 16.8944 24.1924C17.5936 22.5045 18.7776 21.0618 20.2967 20.0467Z" fill="white"/>
<path d="M28.7543 17.1986C29.3306 17.3162 29.8958 17.4889 30.4418 17.7151C31.5626 18.1793 32.5809 18.8598 33.4387 19.7175C34.2965 20.5753 34.9769 21.5937 35.4412 22.7144C35.6673 23.2605 35.84 23.8256 35.9577 24.402L28.7543 24.402V17.1986Z" fill="white"/>
</svg>
