<svg width="28" height="28" viewBox="0 0 28 28" fill="none" xmlns="http://www.w3.org/2000/svg">
<path d="M14 0C6.26818 0 0 6.26818 0 14C0 21.7318 6.26818 28 14 28C21.7318 28 28 21.7318 28 14C28 6.26818 21.7318 0 14 0ZM14 2.54545C20.3261 2.54545 25.4545 7.67391 25.4545 14C25.4545 20.3261 20.3261 25.4545 14 25.4545C7.67391 25.4545 2.54545 20.3261 2.54545 14C2.54545 7.67391 7.67391 2.54545 14 2.54545ZM19.7037 7.88991C19.295 7.89771 18.8979 8.10205 18.6596 8.47035L12.4812 18.0071L9.22976 14.3095C8.76585 13.7826 7.96007 13.7306 7.43253 14.1951C6.90498 14.6597 6.85303 15.4642 7.31694 15.9924L11.6795 20.9503C11.9226 21.2258 12.2713 21.3816 12.6353 21.3816C12.6658 21.3816 12.6973 21.381 12.7285 21.3791C13.1262 21.3498 13.4859 21.1352 13.7029 20.8011L20.7962 9.85494C21.178 9.26503 21.0095 8.47745 20.4196 8.09499C20.1976 7.95181 19.9488 7.88524 19.7037 7.88991Z" fill="#27104E"/>
</svg>
